<?xml version="1.0" encoding="UTF-8" standalone="no"?>
<svg width="22px" height="22px" viewBox="0 0 22 22" version="1.1" xmlns="http://www.w3.org/2000/svg" xmlns:xlink="http://www.w3.org/1999/xlink">
    <!-- Generator: Sketch 43.1 (39012) - http://www.bohemiancoding.com/sketch -->
    <title>search-icon-black</title>
    <desc>Created with Sketch.</desc>
    <defs></defs>
    <g id="Page-1" stroke="none" stroke-width="1" fill="none" fill-rule="evenodd">
        <g id="search-icon-black" fill-rule="nonzero" fill="#141414">
            <path d="M21.4,18.6 L16.6,13.8 C17.5,12.4 18,10.8 18,9 C18,4 14,0 9,0 C4,0 -3.55271368e-15,4 -3.55271368e-15,9 C-3.55271368e-15,14 4,18 9,18 C10.8,18 12.4,17.5 13.8,16.6 L18.6,21.4 C19,21.8 19.5,22 20,22 C21.1,22 22,21.1 22,20 C22,19.4 21.8,18.9 21.4,18.6 Z M4,9 C4,6.2 6.2,4 9,4 C11.8,4 14,6.2 14,9 C14,11.8 11.8,14 9,14 C6.2,14 4,11.8 4,9 Z" id="search"></path>
        </g>
    </g>
</svg>